<svg xmlns="http://www.w3.org/2000/svg" width="768" height="1536" viewBox="0 0 768 1536" role="img" aria-label="Female full body digital substitute avatar">
  <defs>
    <radialGradient id="skinFemale" cx="42%" cy="28%" r="78%">
      <stop offset="0" stop-color="#ffe4cf"/>
      <stop offset="0.5" stop-color="#eda88e"/>
      <stop offset="1" stop-color="#a85f4b"/>
    </radialGradient>
    <linearGradient id="skinShadeFemale" x1="30%" y1="8%" x2="78%" y2="100%">
      <stop offset="0" stop-color="#ffd8c2"/>
      <stop offset="0.55" stop-color="#c97b64"/>
      <stop offset="1" stop-color="#7e393c"/>
    </linearGradient>
    <linearGradient id="hairFemale" x1="16%" y1="8%" x2="84%" y2="96%">
      <stop offset="0" stop-color="#68308a"/>
      <stop offset="0.45" stop-color="#2a1438"/>
      <stop offset="1" stop-color="#0b0714"/>
    </linearGradient>
    <linearGradient id="hairAccentFemale" x1="18%" y1="0" x2="80%" y2="100%">
      <stop offset="0" stop-color="#f0a5ff"/>
      <stop offset="0.46" stop-color="#9b5cf6"/>
      <stop offset="1" stop-color="#34226f"/>
    </linearGradient>
    <linearGradient id="coatFemale" x1="14%" y1="6%" x2="88%" y2="100%">
      <stop offset="0" stop-color="#7dd3fc"/>
      <stop offset="0.42" stop-color="#6d5dfc"/>
      <stop offset="1" stop-color="#312e81"/>
    </linearGradient>
    <linearGradient id="dressFemale" x1="18%" y1="4%" x2="86%" y2="100%">
      <stop offset="0" stop-color="#ff8ac2"/>
      <stop offset="0.5" stop-color="#c02672"/>
      <stop offset="1" stop-color="#701a75"/>
    </linearGradient>
    <linearGradient id="leggingsFemale" x1="22%" y1="0" x2="82%" y2="100%">
      <stop offset="0" stop-color="#4c1d95"/>
      <stop offset="0.54" stop-color="#24123d"/>
      <stop offset="1" stop-color="#0d0718"/>
    </linearGradient>
    <linearGradient id="shoeFemale" x1="16%" y1="0" x2="88%" y2="100%">
      <stop offset="0" stop-color="#fff1f8"/>
      <stop offset="0.38" stop-color="#f0abfc"/>
      <stop offset="1" stop-color="#a21caf"/>
    </linearGradient>
    <radialGradient id="eyeFemale" cx="42%" cy="30%" r="72%">
      <stop offset="0" stop-color="#c9fbff"/>
      <stop offset="0.52" stop-color="#4aa7d8"/>
      <stop offset="1" stop-color="#19324d"/>
    </radialGradient>
    <linearGradient id="shieldFemale" x1="16%" y1="0" x2="86%" y2="100%">
      <stop offset="0" stop-color="#f0abfc" stop-opacity="0.52"/>
      <stop offset="0.52" stop-color="#ec4899" stop-opacity="0.2"/>
      <stop offset="1" stop-color="#0f172a" stop-opacity="0.04"/>
    </linearGradient>
    <filter id="softShadowFemale" x="-26%" y="-16%" width="152%" height="132%">
      <feDropShadow dx="0" dy="26" stdDeviation="24" flood-color="#12051d" flood-opacity="0.3"/>
    </filter>
    <filter id="badgeGlowFemale" x="-30%" y="-30%" width="160%" height="160%">
      <feDropShadow dx="0" dy="0" stdDeviation="7" flood-color="#f0abfc" flood-opacity="0.52"/>
    </filter>
  </defs>
  <ellipse cx="384" cy="1458" rx="216" ry="48" fill="#12051d" opacity="0.26"/>
  <path d="M148 306c42-118 128-188 236-188s194 70 236 188c58 162 40 548-24 746-38 116-104 228-212 228s-174-112-212-228c-64-198-82-584-24-746z" fill="url(#shieldFemale)" opacity="0.84"/>
  <g filter="url(#softShadowFemale)">
    <path d="M288 1040h82l-22 372c-28 18-60 18-90 0l-14-248c-4-68 10-104 44-124z" fill="url(#leggingsFemale)"/>
    <path d="M398 1040h82c34 20 48 56 44 124l-14 248c-30 18-62 18-90 0l-22-372z" fill="url(#leggingsFemale)"/>
    <path d="M252 1392c34 20 70 20 108 0l28 60c-52 34-114 36-184 8 6-36 22-60 48-68z" fill="url(#shoeFemale)"/>
    <path d="M408 1392c38 20 74 20 108 0 26 8 42 32 48 68-70 28-132 26-184-8l28-60z" fill="url(#shoeFemale)"/>
    <path d="M218 732c38-104 94-158 166-158s128 54 166 158l-32 352c-84 50-184 50-268 0l-32-352z" fill="url(#coatFemale)"/>
    <path d="M294 648c24-40 54-60 90-60s66 20 90 60l-40 366H334l-40-366z" fill="url(#dressFemale)"/>
    <path d="M316 596c18 28 40 44 68 44s50-16 68-44V492H316v104z" fill="url(#skinShadeFemale)"/>
    <path d="M228 758c-42 30-70 88-86 174l-42 232c30 34 68 42 114 24l54-288c12-62 6-108-40-142z" fill="url(#coatFemale)"/>
    <path d="M540 758c42 30 70 88 86 174l42 232c-30 34-68 42-114 24l-54-288c-12-62-6-108 40-142z" fill="url(#coatFemale)"/>
    <path d="M96 1152c18-26 54-30 108-14l-14 78c-42 18-76 10-102-24l8-40z" fill="url(#skinFemale)"/>
    <path d="M672 1152c-18-26-54-30-108-14l14 78c42 18 76 10 102-24l-8-40z" fill="url(#skinFemale)"/>
    <path d="M256 690c32 34 74 52 128 52s96-18 128-52l28 304c-92 58-220 58-312 0l28-304z" fill="#3b0764" opacity="0.3"/>
    <path d="M322 804h124" stroke="#fff1f8" stroke-width="18" stroke-linecap="round" opacity="0.62"/>
    <path d="M342 868h84" stroke="#fff1f8" stroke-width="14" stroke-linecap="round" opacity="0.34"/>
    <path d="M166 612c-20-154 4-296 72-422 40-74 92-110 156-106 76 4 132 42 168 112 60 118 78 260 48 424-54-50-92-114-114-188H272c-20 76-54 136-106 180z" fill="url(#hairFemale)"/>
    <ellipse cx="222" cy="364" rx="52" ry="72" fill="#c97962"/>
    <ellipse cx="546" cy="364" rx="52" ry="72" fill="#c97962"/>
    <path d="M224 292c0-108 68-184 160-184s160 76 160 184v112c0 110-70 198-160 198s-160-88-160-198V292z" fill="url(#skinFemale)"/>
    <path d="M222 282c22-136 86-212 190-208 96 4 148 72 154 204-64-46-130-70-198-72-58-2-106 24-146 76z" fill="url(#hairFemale)"/>
    <path d="M360 98c86 14 146 80 180 198-82-46-160-72-234-76 8-54 26-94 54-122z" fill="url(#hairAccentFemale)" opacity="0.82"/>
    <path d="M248 282c50-54 112-80 188-78-54 30-102 50-144 60-18 4-32 10-44 18z" fill="#f0abfc" opacity="0.24"/>
    <path d="M234 258c42-128 136-170 242-120-68 6-120 42-156 108-38 4-66 8-86 12z" fill="#0f0a18" opacity="0.62"/>
    <ellipse cx="305" cy="365" rx="56" ry="35" fill="#fff7f1"/>
    <ellipse cx="463" cy="365" rx="56" ry="35" fill="#fff7f1"/>
    <circle cx="311" cy="366" r="24" fill="url(#eyeFemale)"/>
    <circle cx="457" cy="366" r="24" fill="url(#eyeFemale)"/>
    <circle cx="318" cy="357" r="8" fill="#ffffff"/>
    <circle cx="464" cy="357" r="8" fill="#ffffff"/>
    <path d="M258 320c32-26 72-28 108-6" fill="none" stroke="#231128" stroke-width="15" stroke-linecap="round"/>
    <path d="M402 314c36-20 76-18 110 8" fill="none" stroke="#231128" stroke-width="15" stroke-linecap="round"/>
    <path d="M246 372c26 28 76 32 112 8M410 380c34 24 84 20 112-8" fill="none" stroke="#1a1020" stroke-width="9" stroke-linecap="round" opacity="0.9"/>
    <path d="M384 376c-9 34-21 60-36 78 18 15 54 15 72 0-15-18-27-44-36-78z" fill="#d88870"/>
    <ellipse cx="278" cy="451" rx="48" ry="27" fill="#ff77a8" opacity="0.34"/>
    <ellipse cx="490" cy="451" rx="48" ry="27" fill="#ff77a8" opacity="0.34"/>
    <path d="M322 500c38 44 86 44 124 0" fill="none" stroke="#a3165f" stroke-width="18" stroke-linecap="round"/>
    <path d="M350 506c22 10 46 10 68 0" fill="none" stroke="#fff1f8" stroke-width="8" stroke-linecap="round" opacity="0.78"/>
    <path d="M206 328c-4 132 14 232 54 300-72-52-106-148-90-282l36-18z" fill="#1b0d2a" opacity="0.92"/>
    <path d="M562 328c4 132-14 232-54 300 72-52 106-148 90-282l-36-18z" fill="#1b0d2a" opacity="0.92"/>
    <circle cx="216" cy="444" r="20" fill="#facc15" filter="url(#badgeGlowFemale)"/>
    <circle cx="552" cy="444" r="20" fill="#facc15" filter="url(#badgeGlowFemale)"/>
    <g filter="url(#badgeGlowFemale)">
      <circle cx="384" cy="838" r="54" fill="#3b0764" stroke="#f0abfc" stroke-width="8"/>
      <path d="M352 838c24-26 40-26 64 0M384 808v60" fill="none" stroke="#fff7ff" stroke-width="11" stroke-linecap="round"/>
      <circle cx="384" cy="838" r="38" fill="none" stroke="#ec4899" stroke-width="5" opacity="0.68"/>
    </g>
    <path d="M306 140c58-64 140-64 206 2" fill="none" stroke="#ffffff" stroke-width="14" stroke-linecap="round" opacity="0.16"/>
    <ellipse cx="464" cy="244" rx="104" ry="24" fill="#ffffff" opacity="0.15" transform="rotate(18 464 244)"/>
    <path d="M246 1032c82 46 194 46 276 0" fill="none" stroke="#f0abfc" stroke-width="12" stroke-linecap="round" opacity="0.38"/>
  </g>
</svg>
