<svg xmlns="http://www.w3.org/2000/svg" width="768" height="1536" viewBox="0 0 768 1536" role="img" aria-label="Male full body digital substitute avatar">
  <defs>
    <radialGradient id="skinMale" cx="42%" cy="28%" r="76%">
      <stop offset="0" stop-color="#ffe1bd"/>
      <stop offset="0.48" stop-color="#eba572"/>
      <stop offset="1" stop-color="#aa6246"/>
    </radialGradient>
    <linearGradient id="skinShadeMale" x1="35%" y1="10%" x2="78%" y2="100%">
      <stop offset="0" stop-color="#ffd8b6"/>
      <stop offset="0.55" stop-color="#c57755"/>
      <stop offset="1" stop-color="#7c3b33"/>
    </linearGradient>
    <linearGradient id="hairMale" x1="18%" y1="12%" x2="82%" y2="92%">
      <stop offset="0" stop-color="#52627d"/>
      <stop offset="0.5" stop-color="#182237"/>
      <stop offset="1" stop-color="#070b15"/>
    </linearGradient>
    <linearGradient id="jacketMale" x1="14%" y1="8%" x2="86%" y2="100%">
      <stop offset="0" stop-color="#38bdf8"/>
      <stop offset="0.43" stop-color="#0f766e"/>
      <stop offset="1" stop-color="#062b38"/>
    </linearGradient>
    <linearGradient id="shirtMale" x1="26%" y1="6%" x2="78%" y2="100%">
      <stop offset="0" stop-color="#ecfeff"/>
      <stop offset="0.5" stop-color="#99f6e4"/>
      <stop offset="1" stop-color="#14b8a6"/>
    </linearGradient>
    <linearGradient id="pantsMale" x1="20%" y1="0" x2="82%" y2="100%">
      <stop offset="0" stop-color="#263a5a"/>
      <stop offset="0.58" stop-color="#13233b"/>
      <stop offset="1" stop-color="#080f20"/>
    </linearGradient>
    <linearGradient id="shoeMale" x1="20%" y1="0" x2="86%" y2="100%">
      <stop offset="0" stop-color="#dff8ff"/>
      <stop offset="0.34" stop-color="#67e8f9"/>
      <stop offset="1" stop-color="#0e7490"/>
    </linearGradient>
    <radialGradient id="lensMale" cx="38%" cy="28%" r="78%">
      <stop offset="0" stop-color="#e7fbff" stop-opacity="0.78"/>
      <stop offset="0.58" stop-color="#6ed8ee" stop-opacity="0.24"/>
      <stop offset="1" stop-color="#08283c" stop-opacity="0.5"/>
    </radialGradient>
    <linearGradient id="shieldMale" x1="18%" y1="0" x2="86%" y2="100%">
      <stop offset="0" stop-color="#67e8f9" stop-opacity="0.5"/>
      <stop offset="0.52" stop-color="#14b8a6" stop-opacity="0.2"/>
      <stop offset="1" stop-color="#0f172a" stop-opacity="0.04"/>
    </linearGradient>
    <filter id="softShadowMale" x="-26%" y="-16%" width="152%" height="132%">
      <feDropShadow dx="0" dy="26" stdDeviation="24" flood-color="#020617" flood-opacity="0.28"/>
    </filter>
    <filter id="badgeGlowMale" x="-30%" y="-30%" width="160%" height="160%">
      <feDropShadow dx="0" dy="0" stdDeviation="7" flood-color="#67e8f9" flood-opacity="0.5"/>
    </filter>
  </defs>
  <ellipse cx="384" cy="1458" rx="220" ry="48" fill="#020617" opacity="0.26"/>
  <path d="M154 298c40-110 124-176 230-176s190 66 230 176c54 150 42 548-20 746-36 116-102 234-210 234S210 1160 174 1044c-62-198-74-596-20-746z" fill="url(#shieldMale)" opacity="0.82"/>
  <g filter="url(#softShadowMale)">
    <path d="M282 1042h92l-26 376c-30 18-64 18-96 0l-10-248c-4-68 10-106 40-128z" fill="url(#pantsMale)"/>
    <path d="M394 1042h92c30 22 44 60 40 128l-10 248c-32 18-66 18-96 0l-26-376z" fill="url(#pantsMale)"/>
    <path d="M246 1394c34 20 72 20 112 0l28 60c-54 34-118 36-190 6 6-36 22-58 50-66z" fill="url(#shoeMale)"/>
    <path d="M410 1394c40 20 78 20 112 0 28 8 44 30 50 66-72 30-136 28-190-6l28-60z" fill="url(#shoeMale)"/>
    <path d="M222 734c38-104 92-158 162-158s124 54 162 158l-28 356c-88 46-180 46-268 0l-28-356z" fill="url(#jacketMale)"/>
    <path d="M304 644c22-38 48-58 80-58s58 20 80 58l-26 298H330l-26-298z" fill="url(#shirtMale)"/>
    <path d="M318 596c18 30 40 46 66 46s48-16 66-46V500H318v96z" fill="url(#skinShadeMale)"/>
    <path d="M232 762c-42 30-70 88-86 174l-42 234c30 34 68 42 114 24l54-292c12-60 6-106-40-140z" fill="url(#jacketMale)"/>
    <path d="M536 762c42 30 70 88 86 174l42 234c-30 34-68 42-114 24l-54-292c-12-60-6-106 40-140z" fill="url(#jacketMale)"/>
    <path d="M100 1160c18-26 54-30 108-14l-14 78c-42 18-76 10-102-24l8-40z" fill="url(#skinMale)"/>
    <path d="M668 1160c-18-26-54-30-108-14l14 78c42 18 76 10 102-24l-8-40z" fill="url(#skinMale)"/>
    <path d="M268 690c30 32 68 48 116 48s86-16 116-48l26 314c-90 54-194 54-284 0l26-314z" fill="#052e3c" opacity="0.38"/>
    <path d="M318 790h132" stroke="#d8fffb" stroke-width="18" stroke-linecap="round" opacity="0.64"/>
    <path d="M334 856h100" stroke="#d8fffb" stroke-width="14" stroke-linecap="round" opacity="0.36"/>
    <ellipse cx="214" cy="364" rx="54" ry="76" fill="#c17758"/>
    <ellipse cx="554" cy="364" rx="54" ry="76" fill="#c17758"/>
    <ellipse cx="384" cy="302" rx="226" ry="252" fill="url(#hairMale)"/>
    <path d="M176 338c22-144 104-238 224-238 116 0 190 78 202 210-38-48-88-74-152-80-88-8-164 16-226 72-18 18-34 30-48 36z" fill="#0f1728" opacity="0.84"/>
    <path d="M224 294c0-108 70-184 164-184 96 0 156 76 156 184v108c0 112-70 198-160 198S224 514 224 402V294z" fill="url(#skinMale)"/>
    <path d="M244 244c30-92 94-142 180-130 72 10 118 54 136 132-70-32-156-40-316-2z" fill="url(#hairMale)"/>
    <path d="M248 232c56-98 148-136 250-66-42 2-80 14-116 36-42 26-86 36-134 30z" fill="#41577a"/>
    <path d="M336 120c38-36 94-46 148-22-30 30-78 48-144 56l-4-34z" fill="#657999"/>
    <ellipse cx="302" cy="362" rx="55" ry="36" fill="#fff8f0"/>
    <ellipse cx="466" cy="362" rx="55" ry="36" fill="#fff8f0"/>
    <circle cx="308" cy="364" r="22" fill="#26354d"/>
    <circle cx="460" cy="364" r="22" fill="#26354d"/>
    <circle cx="316" cy="355" r="7" fill="#ffffff"/>
    <circle cx="468" cy="355" r="7" fill="#ffffff"/>
    <path d="M260 320c32-24 70-24 102-4" fill="none" stroke="#151f33" stroke-width="18" stroke-linecap="round"/>
    <path d="M406 316c34-20 72-18 104 6" fill="none" stroke="#151f33" stroke-width="18" stroke-linecap="round"/>
    <rect x="246" y="325" width="122" height="74" rx="34" fill="url(#lensMale)" stroke="#101827" stroke-width="12"/>
    <rect x="400" y="325" width="122" height="74" rx="34" fill="url(#lensMale)" stroke="#101827" stroke-width="12"/>
    <path d="M368 362h32" stroke="#101827" stroke-width="12" stroke-linecap="round"/>
    <path d="M236 351l-46-16M532 351l46-16" stroke="#101827" stroke-width="10" stroke-linecap="round"/>
    <path d="M384 374c-10 36-22 62-36 78 20 16 52 16 72 0-14-16-26-42-36-78z" fill="#cf8964"/>
    <path d="M318 500c40 42 92 42 132 0" fill="none" stroke="#783b37" stroke-width="18" stroke-linecap="round"/>
    <path d="M348 506c22 12 50 12 72 0" fill="none" stroke="#fff5ef" stroke-width="8" stroke-linecap="round" opacity="0.84"/>
    <ellipse cx="274" cy="446" rx="48" ry="25" fill="#ff8f71" opacity="0.28"/>
    <ellipse cx="494" cy="446" rx="48" ry="25" fill="#ff8f71" opacity="0.25"/>
    <g filter="url(#badgeGlowMale)">
      <circle cx="384" cy="836" r="54" fill="#072a38" stroke="#67e8f9" stroke-width="8"/>
      <path d="M362 835h44M384 813v48" stroke="#e6fffb" stroke-width="11" stroke-linecap="round"/>
      <path d="M384 792c24 0 44 20 44 44s-20 44-44 44-44-20-44-44 20-44 44-44z" fill="none" stroke="#0c9488" stroke-width="5" opacity="0.65"/>
    </g>
    <path d="M258 204c58-102 178-130 262-52" fill="none" stroke="#7488b1" stroke-width="18" stroke-linecap="round" opacity="0.42"/>
    <ellipse cx="326" cy="254" rx="98" ry="22" fill="#ffffff" opacity="0.13" transform="rotate(-16 326 254)"/>
    <path d="M246 1034c82 44 194 44 276 0" fill="none" stroke="#67e8f9" stroke-width="12" stroke-linecap="round" opacity="0.38"/>
  </g>
</svg>
